<svg xmlns="http://www.w3.org/2000/svg" width="150" height="168.939" viewBox="0 0 150 168.939"><g transform="translate(0.021)"><g transform="translate(-0.021)"><path d="M79.673,20.2a4.438,4.438,0,0,0,.236-1.132v-.382a4.437,4.437,0,0,0-2.215-3.833V7.486H79.68V3.056H77.694V0H73.263V3.056H71.34V7.486h1.986v7.368a4.437,4.437,0,0,0-2.215,3.833v.382a4.437,4.437,0,0,0,.236,1.132,73.853,73.853,0,1,0,8.333,0Zm-7.111-1.514a2.951,2.951,0,0,1,2.215-2.854V6.007H72.791V4.535h1.986V1.479h1.472V4.535h1.986V6.007H76.249v9.826a2.944,2.944,0,0,1,1.049,5.2l18.055,67.84,3.2-8.187,5.076,11.41v5.125H85.576V91.5h-20.1v5.722H47.423V92.076L52.5,80.666l3.194,8.222,18.055-67.84a2.944,2.944,0,0,1-1.194-2.361ZM49.812,147.6v-.632L46.2,140.388l.083-1.25h58.437l.076,1.25-3.611,6.576v.632Zm51.388,1.972v5.625H49.812v-5.625Zm2.417-50.354v.861l-2.9,4.674v9.528a1.986,1.986,0,0,1,1.993,1.993v1.16h8.333l.875-1.2v3.014l-.91-1.187H100.874l-.194.59L103,121.353l.819-1.812,1.646-1.312.8.125-3.2,5.049-1.847-.243,2.708,3.569.694,10.451h-11.4V115.825a6,6,0,0,0-10.146-4.333V110.8a7.562,7.562,0,0,0-15.118,0v.694A6,6,0,0,0,57.8,115.818v21.34H46.416l.694-10.451,2.708-3.569-1.847.243-3.2-5.049.8-.125,1.646,1.313.819,1.812,2.319-2.708-.194-.59H40l-.875,1.2v-3.014l.875,1.2h8.333v-1.16a1.986,1.986,0,0,1,1.993-1.993v-9.521l-2.9-4.674v-.861H67.451V93.492H83.562v5.722ZM91.326,115.825v21.34h-8.18v-21.34a4.09,4.09,0,1,1,8.18,0Zm-10.153-5.049v26.389H69.86V110.777a5.646,5.646,0,0,1,11.292,0Zm-13.305,5.049v21.34H59.715v-21.34a4.09,4.09,0,1,1,8.174,0ZM45.937,91.784V100.5l2.9,4.667v7.958a3.472,3.472,0,0,0-1.986,2.847H40.784l-3.1-4.257V123.8l3.1-4.278h3l3.16,4.986-1.3,1.674-.694,10.667a52.673,52.673,0,0,1,21.666-94.86L55.423,84.131,52.59,76.853ZM104.1,124.506l3.16-4.986h3l3.1,4.257V111.693l-3.1,4.278h-6.1a3.472,3.472,0,0,0-1.986-2.826v-7.979l2.9-4.674V91.784l-6.653-14.93-2.847,7.278L84.388,41.986a52.673,52.673,0,0,1,21.673,94.86l-.694-10.667Zm-28.6,42.264A72.833,72.833,0,0,1,71.874,21.194c.069.1.125.194.2.285l-5.16,19.444A53.694,53.694,0,0,0,44.882,138.04l-.174,2.687,3.639,6.611v9.333h54.319v-9.333l3.639-6.611-.174-2.687A53.694,53.694,0,0,0,84.1,40.9l-5.16-19.444c.076-.09.132-.187.2-.285a72.827,72.827,0,1,1-3.632,145.608Z" transform="translate(-0.492)" fill="#fff"/><path d="M32.231,179.28a5.445,5.445,0,0,0-2.778,1.028l-3.931,2.6c-.813.542-1.1.4-1.556-.069l-.306.2,1.438,2.167.306-.2c-.514-.882-.174-1.278.583-1.778l3.758-2.493c.785-.528,2.681-1.757,3.834,0,.945,1.389-.757,2.549-1.459,3.014l-4.056,2.709c-1.09.695-1.306.424-1.771-.2l-.306.2L28.2,189.8l.306-.2c-.292-.6-.438-.875.6-1.563l4.119-2.737c1.327-.882,1.591-1.424,1.778-2.16a3.209,3.209,0,0,0-.556-2.514A2.959,2.959,0,0,0,32.231,179.28Z" transform="translate(-7.212 -54.783)" fill="#fff"/><path d="M28.114,173.089c.882-.417,1.111-.16,1.507.438l.34-.16-1.146-2.431-.333.16c.264.84.118,1.188-.847,1.639l-5.348,2.542h0l5.015-8.168-.146-.3-7.876,3.7c-.646.3-.979.382-1.466-.333l-.333.16,1.056,2.25.333-.16c-.326-.9.056-1.236.854-1.618l4.056-1.9h0l-3.973,6.4,1.063,2.257.333-.153c-.063-.139-.1-.333.542-1.389Z" transform="translate(-5.324 -50.972)" fill="#fff"/><path d="M17.14,164.916l6.779-2.278c.868-.3,1.07.125,1.347.695l.347-.118-1.32-3.924-.354.118c.153.632.264,1.1-.632,1.389l-6.786,2.285c-.952.32-1.146-.215-1.347-.729l-.354.118,1.32,3.917.354-.111C16.334,165.763,16.209,165.229,17.14,164.916Z" transform="translate(-4.512 -48.674)" fill="#fff"/><path d="M14.584,157.3l8.008-4.862-.063-.313-9.029-.8c-.861-.076-1.167-.167-1.389-.785l-.361.083.535,2.459.361-.076c-.1-.695-.111-1.014.451-1.139a4.111,4.111,0,0,1,1.049,0l5.07.438-4.237,2.507a6.357,6.357,0,0,1-1.167.611c-.549.125-.611-.146-.827-.861l-.361.083.847,3.883.361-.083C13.778,157.972,13.785,157.805,14.584,157.3Z" transform="translate(-3.574 -46)" fill="#fff"/><path d="M12.528,144.244l7.133-.576c.917-.069.986.292,1.132.952h.368l-.556-6.9-3.1-.222v.326c2.285.563,2.778,1.736,2.862,2.889.063.771-.1,1.007-.75,1.063l-3.563.285c-.1-1.167.3-1.806,2.132-2.084v-.306l-4.98.4v.306c1.841,0,2.278.6,2.355,1.736l-3.424.278c-.632.049-.695-.16-.764-.806-.125-1.6.174-2.459,2.25-2.9V138.4l-2.959.236.542,6.807h.368C11.591,144.793,11.591,144.321,12.528,144.244Z" transform="translate(-3.241 -42.016)" fill="#fff"/><path d="M12.305,131.279l6.522.375c1.2.069,1.229.306,1.3,1.118h.368l.236-3.994h-.368c-.181.771-.243,1.028-1.424.965l-2.889-.167v-.32l4.765-2.181.139-2.417h-.368a.507.507,0,0,1-.306.472l-4.348,2.132a2.459,2.459,0,0,0-2.417-2c-2.48-.146-2.744,2.355-2.778,3.181l-.215,3.8h.368C10.985,131.571,11.034,131.2,12.305,131.279Zm-1.07-2.716c.049-.945.695-1.389,2.209-1.306,1.917.111,2.209.743,2.132,2.292l-3.765-.215C11.353,129.244,11.194,129.209,11.235,128.563Z" transform="translate(-3.199 -38.092)" fill="#fff"/><path d="M14.383,119.384c.695.125,1.917.361,3.473-1.389l.618-.695c.59-.695,1.042-1.146,2.014-.965.188.042,1.618.368,1.354,1.764s-2.049,1.841-3.563,1.792l-.063.34,3.584.695.069-.34c-.229-.09-.479-.194-.431-.445.069-.354.66-.785.875-1.889a2.9,2.9,0,0,0-2.494-3.473,3.2,3.2,0,0,0-2.917.771l-1.389,1.507c-.8.861-1.16,1.021-1.945.868a1.278,1.278,0,0,1-1.139-1.507c.257-1.389,2.084-1.75,3.119-1.764l.063-.326-3.153-.6-.069.347c.271.111.472.208.424.479a6.865,6.865,0,0,0-.827,1.723A2.661,2.661,0,0,0,14.383,119.384Z" transform="translate(-3.63 -34.752)" fill="#fff"/><path d="M15.474,108.391l6.862,2.021c.882.257.806.695.695,1.389l.354.1,1.167-3.973-.354-.1c-.243.6-.417,1.049-1.327.778l-6.848-2.056c-.965-.278-.82-.827-.695-1.389l-.354-.111L13.8,109.044l.354.1C14.356,108.641,14.536,108.113,15.474,108.391Z" transform="translate(-4.2 -32.1)" fill="#fff"/><path d="M19.069,100.641c-2.084-1.132-1.688-2.285-1.424-3.07l7.189,3c1.146.479,1.063.75.813,1.584l.34.139,1.625-3.9-.34-.146c-.4.785-.542,1.035-1.7.549l-7.189-3c.368-.729.91-1.827,3.181-1.132l.132-.32L18.917,93.23,16.18,99.78l2.73,1.174Z" transform="translate(-4.927 -28.488)" fill="#fff"/><path d="M22.514,88.092l5.327.6,1.875,1.1c1.063.618.945.882.618,1.639l.32.181,2.084-3.542-.32-.188c-.507.695-.695.875-1.723.257l-2.355-1.389-2.834-4.265a.993.993,0,0,1-.09-.986L25.1,81.32l-1.32,2.25.319.188c.319-.458.563-.82,1.063-.528a4.445,4.445,0,0,1,.952,1.09l1.7,2.514-3.681-.507a2.91,2.91,0,0,1-.854-.174c-.361-.208-.361-.375.049-1.077l-.32-.188L21,88.307l.32.188a1.236,1.236,0,0,1,1.195-.4Z" transform="translate(-6.4 -24.849)" fill="#fff"/><path d="M35.276,77.208c2.348,2.042,5.119,2.084,6.716.292s1.132-4.563-1.209-6.605-5.209-2.014-6.71-.292S32.851,75.09,35.276,77.208Zm-.833-6.251c1.09-1.25,3.341.132,4.966,1.549.972.847,3.542,3.188,2.216,4.709s-4-.695-4.966-1.549c-1.632-1.459-3.306-3.494-2.223-4.744Z" transform="translate(-10.115 -21.187)" fill="#fff"/><path d="M42.466,63.339l4.709,5.418c.6.695.347.965-.1,1.472l.243.278,3.223-2.778-.243-.278c-.653.507-1.035.792-1.674.056l-2.278-2.612c1.125-.972,1.973-.285,2.869.549l.222-.194L46.161,61.47l-.222.194c.646,1,1.2,1.91.076,2.848l-2.243-2.591c-.417-.486-.3-.695.188-1.084,1.535-1.334,2.389-.84,3.591.153l.215-.181L45.82,58.56l-5.07,4.39.243.278C41.438,62.894,41.827,62.6,42.466,63.339Z" transform="translate(-12.438 -17.894)" fill="#fff"/><path d="M56.461,54.594c-.993-2.16,0-2.841.695-3.313l3.931,6.73c.632,1.07.4,1.236-.3,1.75l.181.32,3.66-2.132-.181-.319c-.8.382-1.056.5-1.695-.59l-3.931-6.723c.736-.361,1.82-.91,3.223,1.014l.3-.174L60.816,48.6,54.69,52.184l1.472,2.584Z" transform="translate(-16.697 -14.851)" fill="#fff"/><path d="M67.266,46.867l2.695,6.626c.326.813,0,1.021-.535,1.354l.139.34,3.7-1.5-.139-.34c-.618.153-1.042.264-1.389-.57l-1.278-3.153,2.639-1.07L74.378,51.7c.34.833-.042,1.056-.59,1.389l.139.34,3.723-1.514-.139-.34c-.618.139-1.028.243-1.389-.583l-2.688-6.626c-.368-.889.111-1.132.57-1.389l-.139-.347-3.73,1.514.139.347c.5-.16,1.014-.333,1.389.57l1.153,2.834-2.639,1.077-1.153-2.841c-.368-.9.125-1.132.59-1.389l-.139-.347L65.8,45.929l.139.347C66.425,46.145,66.9,45.978,67.266,46.867Z" transform="translate(-20.092 -13.027)" fill="#fff"/><path d="M81.334,42.33l1.688,6.946c.215.9-.132,1.021-.764,1.271l.09.354,6.723-1.632-.271-3.1-.319.076c-.194,2.348-1.278,3.007-2.4,3.278-.75.181-1.007.063-1.16-.57l-.847-3.473c1.139-.278,1.827,0,2.4,1.771l.3-.069-1.181-4.862-.3.069c.264,1.82-.236,2.341-1.341,2.591l-.813-3.334c-.146-.611.049-.695.695-.875,1.549-.375,2.452-.215,3.209,1.757l.292-.069L86.64,39.58,80,41.191l.09.361C80.611,41.469,81.1,41.379,81.334,42.33Z" transform="translate(-24.431 -12.094)" fill="#fff"/><path d="M125.753,41.007c.188-.986.785-.889,1.389-.806l.069-.368L122.87,39l-.069.368c.563.153,1.132.292.952,1.25l-1.375,7.036c-.174.9-.695.861-1.347.806l-.069.368,4.32.827.069-.368c-.695-.188-1.153-.319-.972-1.25Z" transform="translate(-36.947 -11.917)" fill="#fff"/><path d="M139.541,43.8l.111-.354-2.563-.84-.118.354c.938.4.931.91.653,1.757l-1.389,4.258h0l-2.209-7.335-2.514-.827-.118.354c.153.049.333.153.695,1.347l-2.181,6.661c-.306.924-.695.917-1.389.778l-.118.354,2.709.889.118-.354c-.847-.4-1.014-.75-.695-1.764l1.841-5.619h0l2.827,9.356.333.111,2.709-8.279C138.457,43.943,138.638,43.644,139.541,43.8Z" transform="translate(-39.221 -12.47)" fill="#fff"/><path d="M149.8,57.019a3.736,3.736,0,0,1-3.473.264,2.244,2.244,0,0,1-1.111-2.014,8.141,8.141,0,0,1,1-3.146c1.139-2.223,2.612-4.015,4.244-3.174,1.271.653,1.424,2.674,1.229,4.022l.278.139L153.576,50l-.306-.153c-.278.271-.521.493-.827.34s-.82-1.236-1.827-1.75c-2.348-1.209-5.008,0-6.383,2.695-1.257,2.459-.959,5.341,1.646,6.675,1.438.736,2.73.354,4.112-.319Z" transform="translate(-43.84 -14.657)" fill="#fff"/><path d="M161.8,56.228l-.278-.208-7.036,4.862c-.958.695-1.389.979-2.014.695l-.215.3,2.084,1.5.215-.292c-.326-.278-.792-.695-.458-1.125a11.2,11.2,0,0,1,1.57-1.215l2.285,1.667a9.654,9.654,0,0,1-.695,1.931c-.292.4-.486.271-1.153-.125l-.222.3,3.292,2.4.215-.3c-.5-.333-.368-.854.1-2.466Zm-3.681,5.619-1.98-1.445,3.07-2.2Z" transform="translate(-46.512 -17.118)" fill="#fff"/><path d="M169.486,74.883l1.243-4.758a2.507,2.507,0,0,0,3.188-.375c1.764-1.75,0-3.73-.646-4.355l-2.848-2.876-.264.264c.465.549.695.847-.188,1.743L165.3,69.1c-.847.847-1.056.695-1.743.174l-.264.257,2.994,3.042.264-.257c-.493-.695-.653-.91.188-1.743l2.084-2.042.243.243L167.6,73.883l1.813,1.834.264-.264A.535.535,0,0,1,169.486,74.883Zm-.354-6.689,2.674-2.646c.375-.278.507-.375.993.111.695.695.618,1.528-.445,2.584C170.986,69.591,170.3,69.355,169.131,68.195Z" transform="translate(-49.882 -19.104)" fill="#fff"/><path d="M174.46,79.571c-.792.57-1.084.34-1.6-.208l-.306.215,1.66,2.32.306-.215c-.451-.827-.375-1.2.493-1.82l4.813-3.473h0l-3.271,9.217.2.285,7.105-5c.576-.417.9-.549,1.528.111l.306-.215-1.57-2.2-.306.215c.521.882.215,1.285-.507,1.806l-3.646,2.6h0l2.6-7.224-1.535-2.16-.3.215c.09.139.174.326-.25,1.493Z" transform="translate(-52.716 -22.557)" fill="#fff"/><path d="M180.566,92.387l-.326.167,1.132,2.285.326-.167c-.16-.4-.389-.952.111-1.2a10.53,10.53,0,0,1,1.959-.354l1.25,2.535a9.167,9.167,0,0,1-1.5,1.389c-.438.215-.556,0-.965-.646l-.333.167,1.806,3.653.333-.167c-.292-.528.069-.931,1.236-2.139l5.723-5.959-.153-.319-8.5,1.1C181.5,92.88,180.976,92.943,180.566,92.387Zm7.543.111-2.653,2.73-1.09-2.195Z" transform="translate(-55.064 -27.999)" fill="#fff"/><path d="M192.582,100.528c2.327-.514,2.778.695,3.146,1.507l-7.39,2.48c-1.181.4-1.306.118-1.681-.695l-.347.118,1.431,4.251.347-.118c-.229-.9-.292-1.2.9-1.6l7.39-2.535c.215.84.563,2.084-1.6,3.077l.118.347,2.813-.965-2.4-7.147-2.834.91Z" transform="translate(-56.918 -30.328)" fill="#fff"/><path d="M198.04,114.271l-7.05,1.236c-.9.16-1.014-.215-1.229-.91l-.361.069,1.271,7.237h3.119l-.063-.347c-2.334-.4-2.938-1.591-3.146-2.778-.146-.8,0-1.07.632-1.181l3.521-.618c.215,1.229-.111,1.931-1.9,2.4l.056.319,4.918-.861-.056-.326c-1.834.132-2.327-.431-2.521-1.618l3.383-.6c.625-.111.695.1.84.785.292,1.674.083,2.612-1.931,3.264l.049.306,2.931-.514L199.242,113l-.361.063C198.936,113.576,199,114.1,198.04,114.271Z" transform="translate(-57.862 -34.529)" fill="#fff"/><path d="M191.246,136.591v.354l6.744,2.778v.09l-7.05,1.625v.34l8.7,3.126c.535.188.868.486.882.931h.368l.16-2.285h-.368c-.063.424-.1.861-.695.82a2.34,2.34,0,0,1-.618-.132l-4.911-1.743h0l5-.993a5,5,0,0,1,.827-.125c.5.035.493.4.493.945h.368l.278-3.91h-.368c-.069.6-.243.695-.576.868l-1.452.34-4.4-1.785h0l5.425-1.118a2.027,2.027,0,0,1,.493-.056c.549.042.556.4.563.847h.368l.264-3.688h-.368c-.125.521-.285.632-1.007.8Z" transform="translate(-58.333 -40.892)" fill="#fff"/><path d="M194.819,151.584c-3.014-.764-5.557.521-6.189,3.021s.986,4.862,3.994,5.605c3.119.792,5.557-.695,6.182-3.021S197.938,152.375,194.819,151.584Zm3.515,5.487c-.438,1.7-3.07,1.514-5.161.979-1.25-.313-4.6-1.243-4.063-3.327s3.91-1.3,5.161-.986C196.361,154.272,198.764,155.362,198.333,157.071Z" transform="translate(-57.586 -46.252)" fill="#fff"/><path d="M192.729,167.677l-5.987-2.618c-1.1-.479-1.035-.729-.8-1.563l-.34-.146-1.7,3.89.333.153c.458-.695.611-.945,1.695-.472l2.653,1.167-.139.306-5.279.528-1.035,2.362.34.146a.563.563,0,0,1,.465-.354l4.862-.625a2.5,2.5,0,0,0,1.528,2.82c2.271.993,3.473-1.389,3.806-2.2l1.618-3.709-.333-.153C194.077,167.844,193.9,168.184,192.729,167.677Zm0,3.07c-.4.924-1.188,1.139-2.556.542-1.764-.771-1.8-1.5-1.153-3.014l3.473,1.507c.375.271.514.333.229.965Z" transform="translate(-55.642 -49.915)" fill="#fff"/><path d="M187.185,180.983l-6.119-3.952a.9.9,0,0,1-.257-1.389l-.306-.2-2.16,3.341c-1.618,2.723-.417,5.112,1.868,6.591,1.91,1.236,4.688,1.674,6.6-1.285l2.084-3.223-.313-.2C188.3,181.024,187.942,181.476,187.185,180.983Zm-.806,2.834c-1.174,1.813-3.98.347-5.105-.382-2.966-1.917-3.16-3.362-2.4-4.542.326-.507.611-.458,1.1-.139l6.251,4.028c.264.167.576.354.146,1.035Z" transform="translate(-54.258 -53.609)" fill="#fff"/><path d="M95.423,232.686V227.06h-.208l-3.1,1.077v.271a4.988,4.988,0,0,1,1.007-.25c.479,0,.479.438.479.695v3.8c0,.611,0,.993-1.466.986v.236H96.75v-.236C95.506,233.61,95.423,233.346,95.423,232.686Z" transform="translate(-28.131 -69.383)" fill="#fff"/><path d="M102.975,229.86c.695-.181,1.674-.535,1.674-1.389,0-.563-.493-1.431-2.362-1.431s-2.778.84-2.778,1.757.785,1.389,1.709,1.834c-.82.208-1.848.59-1.848,1.667s1.25,1.653,2.577,1.653c1.764,0,2.9-.764,2.9-2C104.822,231.048,104.031,230.36,102.975,229.86Zm-1.9-1.723a.91.91,0,0,1,1.007-.792,1.056,1.056,0,0,1,1.1,1.2,1.424,1.424,0,0,1-.507,1.132c-.09-.049-1.6-.583-1.6-1.542Zm.938,5.515a1.2,1.2,0,0,1-1.174-1.389,1.938,1.938,0,0,1,.632-1.466c.833.438,1.632.868,1.632,1.674a1.007,1.007,0,0,1-1.09,1.181Z" transform="translate(-30.35 -69.377)" fill="#fff"/><path d="M112.288,229.86c.695-.181,1.674-.535,1.674-1.389,0-.563-.493-1.431-2.362-1.431s-2.778.84-2.778,1.757.792,1.389,1.716,1.834c-.827.208-1.848.59-1.848,1.667s1.243,1.653,2.57,1.653c1.764,0,2.9-.764,2.9-2C114.135,231.048,113.351,230.36,112.288,229.86Zm-1.9-1.723a.917.917,0,0,1,1.014-.792,1.049,1.049,0,0,1,1.09,1.2,1.445,1.445,0,0,1-.5,1.132c-.125-.049-1.6-.583-1.6-1.542Zm.938,5.515a1.209,1.209,0,0,1-1.174-1.389,1.966,1.966,0,0,1,.632-1.466c.833.438,1.639.868,1.639,1.674a1.014,1.014,0,0,1-1.1,1.181Z" transform="translate(-33.198 -69.377)" fill="#fff"/><path d="M120.543,232.686V227.06h-.208l-3.1,1.077v.271a4.989,4.989,0,0,1,1.007-.25c.479,0,.479.438.479.695v3.8c0,.611,0,.993-1.466.986v.236h4.619v-.236C120.64,233.61,120.543,233.346,120.543,232.686Z" transform="translate(-35.807 -69.383)" fill="#fff"/><path d="M85.616,92.188h20.059v5.7h18.059V92.743l-5.077-11.412-3.2,8.224L97.4,21.7a2.945,2.945,0,0,0-1.049-5.2V6.659H98.34V5.186H96.354V2.13H94.881V5.186H92.895V6.659h1.986v9.828a2.945,2.945,0,0,0-1.049,5.2l-18,67.866-3.2-8.189L67.55,92.778V97.89H85.609Z" transform="translate(-20.631 -0.651)" fill="#d13239"/><rect width="51.356" height="5.626" transform="translate(49.336 149.565)" fill="#d13239"/><path d="M65.893,200.36l-.083,1.25,3.612,6.578v.632h51.384v-.632l3.612-6.578-.083-1.25Z" transform="translate(-20.1 -61.228)" fill="#d13239"/><path d="M105.517,151.39a5.647,5.647,0,0,0-5.647,5.647V183.43h11.294V157.037a5.647,5.647,0,0,0-5.647-5.647Z" transform="translate(-30.503 -46.263)" fill="#d13239"/><path d="M89.344,160.9a4.091,4.091,0,0,0-4.084,4.091v21.344h8.154V164.991a4.091,4.091,0,0,0-4.07-4.091Z" transform="translate(-26.038 -49.168)" fill="#d13239"/><path d="M123.061,160.9a4.091,4.091,0,0,0-4.091,4.091v21.344h8.182V164.991a4.091,4.091,0,0,0-4.091-4.091Z" transform="translate(-36.339 -49.168)" fill="#d13239"/><path d="M119.185,158.572v-1.16a1.987,1.987,0,0,0-1.993-1.993v-9.529l2.9-4.674v-.861H100.049V134.63H83.935v5.723H63.9v.861l2.9,4.674v9.529a1.986,1.986,0,0,0-1.993,1.993v1.16H56.465l-.875-1.2v3.014l.889-1.188H66.62l.194.59-2.32,2.709-.82-1.813-1.646-1.313-.8.125,3.2,5.05,1.848-.243-2.709,3.57-.695,10.453h11.4V156.967a6,6,0,0,1,10.155-4.327v-.695a7.564,7.564,0,0,1,15.121,0v.695a6,6,0,0,1,10.148,4.334v21.344h11.384l-.695-10.453-2.709-3.57,1.848.243,3.2-5.049-.8-.125-1.646,1.313-.82,1.813-2.32-2.709.194-.59h10.141l.875,1.2v-3.014l-.875,1.2Z" transform="translate(-16.978 -41.144)" fill="#d13239"/><path d="M79.389,27.46a4.438,4.438,0,0,1-.236,1.132,73.853,73.853,0,1,1-8.333,0,4.437,4.437,0,0,1-.236-1.132,75,75,0,1,0,8.792,0Z" transform="translate(0.021 -8.387)" fill="#231f20"/><path d="M112.744,229.811a1.445,1.445,0,0,0,.5-1.132,1.049,1.049,0,0,0-1.09-1.2.917.917,0,0,0-1.014.792C111.14,229.228,112.619,229.762,112.744,229.811Z" transform="translate(-33.946 -69.508)" fill="#231f20"/><path d="M37.073,76.12c.965.84,3.633,3.07,4.966,1.549S40.8,73.808,39.823,72.96c-1.625-1.389-3.876-2.778-4.966-1.549S35.44,74.7,37.073,76.12Z" transform="translate(-10.53 -21.676)" fill="#231f20"/><path d="M189.924,92.88l-3.744.535,1.09,2.195Z" transform="translate(-56.879 -28.381)" fill="#231f20"/><path d="M181.666,184.835c1.125.729,3.931,2.195,5.105.382.431-.695.118-.868-.167-1.035l-6.251-4.028c-.493-.32-.778-.368-1.1.139C178.506,181.439,178.7,182.883,181.666,184.835Z" transform="translate(-54.65 -54.975)" fill="#231f20"/><path d="M193.022,173.454c1.389.6,2.16.382,2.556-.542.285-.632.146-.695-.25-.965l-3.473-1.507C191.224,171.954,191.258,172.683,193.022,173.454Z" transform="translate(-58.498 -52.08)" fill="#231f20"/><path d="M12.124,130.472l3.765.215c.076-1.549-.215-2.181-2.132-2.292-1.493-.083-2.16.361-2.209,1.306C11.506,130.347,11.665,130.382,12.124,130.472Z" transform="translate(-3.51 -39.23)" fill="#231f20"/><path d="M102.659,235.317a1.007,1.007,0,0,0,1.09-1.153c0-.806-.8-1.236-1.632-1.674a1.938,1.938,0,0,0-.632,1.466,1.2,1.2,0,0,0,1.174,1.361Z" transform="translate(-30.992 -71.041)" fill="#231f20"/><path d="M3.12,103.251a72.832,72.832,0,1,0,76.464-72.74c-.069.1-.125.194-.2.285l5.16,19.444a53.692,53.692,0,0,1,22.034,97.114l.174,2.687-3.639,6.611v9.333H48.793v-9.333l-3.639-6.611.174-2.687A53.692,53.692,0,0,1,67.362,50.218l5.16-19.444c-.076-.09-.132-.187-.2-.285a72.915,72.915,0,0,0-69.2,72.761Zm139.04,17c-.6,2.347-3.062,3.812-6.18,3.021-3.007-.764-4.625-3.111-3.993-5.6s3.174-3.785,6.187-3.021C141.292,115.438,142.757,117.9,142.16,120.251Zm1.764-18.055h.368l-.264,3.687h-.368c0-.451,0-.806-.563-.847a2.028,2.028,0,0,0-.493.056l-5.424,1.118h0l4.4,1.785,1.451-.34c.333-.146.507-.271.576-.868h.368l-.278,3.91h-.368c0-.542,0-.91-.493-.944a5,5,0,0,0-.826.125l-5,.993h0l4.917,1.778a2.34,2.34,0,0,0,.618.132c.6.042.646-.4.694-.819h.368l-.16,2.285h-.368c0-.444-.347-.743-.882-.931l-8.7-3.125v-.34l7.042-1.632v-.09l-6.743-2.778v-.354l9.062-2.035c.785-.146.944-.257,1.069-.778Zm-1.965-14.409.361-.062,1.257,7.139-2.931.514-.049-.306c2.014-.653,2.222-1.59,1.931-3.264-.118-.694-.215-.9-.84-.785l-3.382.6c.194,1.187.694,1.75,2.521,1.618l.056.326-4.917.861-.056-.319c1.792-.472,2.083-1.174,1.9-2.4l-3.521.618c-.639.111-.778.382-.632,1.181.208,1.215.812,2.41,3.146,2.778l.063.347H133.75l-1.271-7.173.361-.069c.215.694.326,1.069,1.229.91l7.049-1.236C142.076,88.891,142.014,88.363,141.958,87.786Zm-.236-2.375-2.812.986-.118-.347c2.167-.986,1.819-2.236,1.6-3.076l-7.389,2.479c-1.187.4-1.125.694-.9,1.6l-.347.118-1.431-4.243.347-.118c.375.84.5,1.118,1.681.694l7.389-2.479c-.34-.819-.819-2.021-3.146-1.507l-.118-.34,2.833-.91ZM89.369,46.684l-.069.368-4.319-.826.069-.368c.694.056,1.174.09,1.347-.806l1.361-7.028c.181-.958-.389-1.1-.951-1.25l.069-.368,4.319.826-.069.368c-.583-.083-1.181-.181-1.389.806L88.4,45.427C88.216,46.364,88.7,46.5,89.369,46.684Zm10.59-5.222-2.708,8.277-.333-.111-2.826-9.354h0l-1.84,5.618c-.333,1.014-.167,1.389.694,1.764l-.118.354-2.708-.889.118-.354c.743.139,1.111.146,1.389-.778l2.181-6.659c-.354-1.194-.535-1.3-.694-1.347l.118-.354,2.514.854,2.181,7.361h0l1.389-4.257c.278-.847.285-1.389-.653-1.757l.118-.354,2.562.84-.111.354C100.355,40.49,100.174,40.788,99.959,41.462Zm2.993,11c-2.6-1.333-2.9-4.215-1.646-6.673,1.389-2.674,4.035-3.9,6.382-2.694,1.007.514,1.535,1.6,1.826,1.75s.549-.069.826-.34l.306.153-1.583,3.076-.278-.139c.194-1.347.042-3.368-1.229-4.021-1.632-.84-3.1.951-4.243,3.173a8.138,8.138,0,0,0-.972,3.146,2.243,2.243,0,0,0,1.111,2.014,3.7,3.7,0,0,0,3.472-.264l.167.5C105.681,52.816,104.424,53.2,102.952,52.461Zm10.861,6.361-.215.3-3.292-2.4.222-.3c.694.4.861.521,1.153.125a9.652,9.652,0,0,0,.694-1.93l-2.285-1.667a11.2,11.2,0,0,0-1.569,1.215c-.333.451.132.847.458,1.125l-.215.292-2.083-1.5.215-.3c.618.306,1.056,0,2.014-.694l7.035-4.861.278.208-2.319,7.93C113.452,57.968,113.313,58.489,113.813,58.822Zm6.632,7.1-1.812-1.833,1.458-5.1-.243-.243-2.083,2.042c-.84.833-.694,1.056-.188,1.743l-.264.257L114.32,59.76l.264-.257c.694.528.9.694,1.743-.174l4.646-4.59c.9-.9.653-1.194.188-1.743l.264-.264,2.847,2.875c.618.625,2.41,2.6.646,4.354a2.507,2.507,0,0,1-3.187.375l-1.215,4.757a.535.535,0,0,0,.167.562Zm4.347,6.493,3.243-9.215h0l-4.812,3.472c-.868.618-.944.993-.493,1.819l-.306.215-1.66-2.319.306-.215c.521.549.813.778,1.6.208l5.7-4.069c.424-1.167.34-1.354.25-1.493l.3-.215,1.535,2.16-2.6,7.222h0l3.646-2.632c.694-.521,1.028-.924.507-1.805l.306-.215,1.569,2.2-.306.215c-.632-.694-.951-.528-1.528-.111l-7.09,5.062Zm3.306,5.465.333-.167c.41.694.528.861.965.646a9.167,9.167,0,0,0,1.5-1.389l-1.25-2.535a10.529,10.529,0,0,0-1.958.354c-.5.25-.271.806-.111,1.2l-.326.167L126.118,73.9l.326-.167c.41.556.937.493,2.083.34l8.535-1.125.153.319-5.708,5.958c-1.167,1.208-1.528,1.611-1.236,2.139l-.333.167Zm.368,50.443,5.278-.528.139-.306-2.653-1.167c-1.083-.472-1.236-.236-1.694.472l-.333-.153,1.7-3.889.34.146c-.236.833-.3,1.083.8,1.562l5.986,2.618c1.167.507,1.347.167,1.694-.472l.333.153-1.6,3.708c-.354.806-1.535,3.194-3.806,2.2a2.5,2.5,0,0,1-1.528-2.819l-4.861.625a.562.562,0,0,0-.465.354l-.34-.146Zm-3.472,6.146,2.16-3.34.306.2a.9.9,0,0,0,.257,1.389l6.118,3.951c.757.493,1.083.042,1.389-.34l.312.2-2.083,3.222c-1.91,2.958-4.687,2.521-6.6,1.285-2.243-1.458-3.444-3.847-1.826-6.569Zm-42.68,33.6,3.1-1.076h.208v5.625c0,.694.111.924,1.326.924v.236H82.334v-.236c1.431,0,1.465-.375,1.465-.986v-3.8c0-.243,0-.694-.479-.694a4.987,4.987,0,0,0-1.007.25Zm-5.805.694c0-.917.826-1.757,2.778-1.757s2.361.868,2.361,1.43c0,.84-.993,1.194-1.674,1.389,1.062.5,1.847,1.187,1.847,2.083,0,1.236-1.132,2-2.9,2-1.326,0-2.569-.569-2.569-1.653s1.021-1.458,1.847-1.667c-.861-.424-1.66-1.021-1.66-1.84Zm-6.465,0c0-.917.826-1.757,2.778-1.757s2.361.868,2.361,1.43c0,.84-1,1.194-1.674,1.389,1.056.5,1.847,1.187,1.847,2.083,0,1.236-1.132,2-2.9,2-1.326,0-2.576-.569-2.576-1.653s1.028-1.458,1.847-1.667c-.868-.424-1.653-1.021-1.653-1.84Zm-5.16-.694,3.1-1.076H68.2v5.625c0,.694.111.924,1.326.924v.236H64.939v-.236c1.431,0,1.465-.375,1.465-.986v-3.8c0-.243,0-.694-.479-.694a4.986,4.986,0,0,0-1.007.25ZM11.71,82.287l.354.111c-.132.542-.278,1.09.694,1.389l6.861,2.021c.91.271,1.083-.174,1.326-.778l.354.1-1.167,3.972-.354-.1c.1-.639.181-1.1-.694-1.389l-6.861-2.021c-.937-.278-1.118.25-1.319.757l-.354-.1ZM9.287,90.835c.181-.931.764-1.389.826-1.722s-.153-.368-.424-.479l.069-.347,3.153.6-.062.326c-1.056,0-2.861.4-3.118,1.764a1.278,1.278,0,0,0,1.139,1.507c.785.153,1.146,0,1.944-.868L14.2,90.106a3.194,3.194,0,0,1,2.917-.771,2.9,2.9,0,0,1,2.493,3.472c-.215,1.1-.806,1.535-.875,1.889-.049.25.2.354.431.444l-.069.34-3.583-.694.063-.34c1.514.049,3.278-.312,3.562-1.792a1.479,1.479,0,0,0-1.354-1.764c-.972-.181-1.424.3-2.014.965l-.618.694c-1.569,1.757-2.819,1.521-3.472,1.389A2.661,2.661,0,0,1,9.287,90.835Zm-.84,8.805c.049-.826.312-3.326,2.778-3.18a2.458,2.458,0,0,1,2.417,2l4.347-2.132a.507.507,0,0,0,.306-.472h.368l-.139,2.417-4.764,2.18v.319l2.889.167c1.181.063,1.243-.194,1.424-.965h.368l-.236,3.993h-.368c-.069-.812-.1-1.049-1.3-1.118l-6.521-.375c-1.271-.076-1.319.292-1.389.958H8.259Zm-.125,6.25,2.958-.236v.292c-2.083.444-2.375,1.306-2.25,2.9.056.646.132.854.764.806l3.424-.278c-.076-1.132-.514-1.7-2.354-1.736v-.306l4.979-.4v.306c-1.833.292-2.229.931-2.132,2.083l3.562-.285c.653-.056.812-.292.75-1.062-.1-1.153-.576-2.326-2.861-2.889v-.326l3.1.222.556,6.9h-.368c-.146-.66-.215-1.021-1.132-.951l-7.132.576c-.972.076-.958.576-.965,1.125H8.856Zm2.437,15.972-.847-3.882.361-.083c.215.694.278.986.826.861a6.355,6.355,0,0,0,1.167-.611L16.5,115.64l-5.069-.437a4.111,4.111,0,0,0-1.049,0c-.562.125-.549.472-.451,1.139l-.361.076-.535-2.458.361-.083c.243.618.549.694,1.389.785l9.028.8.062.312-8.007,4.861c-.8.486-.806.694-.8,1.187Zm2.132,5.055-.354.111-1.319-3.917.354-.118c.2.514.4,1.049,1.347.729l6.785-2.264c.9-.3.785-.764.632-1.389l.354-.118,1.319,3.923-.347.118c-.278-.583-.479-1.007-1.347-.694l-6.778,2.278c-.9.292-.778.826-.618,1.361Zm15.278,8.215a3.208,3.208,0,0,1,.556,2.514c-.187.736-.451,1.278-1.778,2.16l-4.118,2.736c-1.035.694-.889.958-.6,1.562l-.306.2L19.7,140.993l.306-.2c.465.625.694.924,1.771.2l4.111-2.729c.694-.465,2.4-1.6,1.458-3.014-1.153-1.736-3.049-.507-3.833,0l-3.75,2.535c-.757.5-1.1.9-.583,1.778l-.306.2L17.439,137.6l.306-.2c.458.472.743.611,1.556.069l3.931-2.6a5.445,5.445,0,0,1,2.778-1.028,2.958,2.958,0,0,1,2.153,1.319Zm-5.41-10.048.146.3-5.014,8.166h0l5.347-2.514c.965-.451,1.111-.8.847-1.639l.333-.16,1.146,2.43-.34.16c-.4-.6-.625-.854-1.507-.438l-6.34,2.979c-.646,1.028-.6,1.222-.542,1.389l-.333.153-1.062-2.257,3.972-6.4h0l-4.056,1.9c-.8.382-1.181.694-.854,1.618l-.333.16-1.083-2.3.333-.16c.486.694.819.632,1.465.333ZM21.995,83.12l-.34-.139c.25-.833.333-1.1-.812-1.583l-7.187-3c-.264.785-.694,1.937,1.424,3.069l-.132.312-2.729-1.174,2.736-6.548,2.778,1.118L17.6,75.5c-2.271-.694-2.812.4-3.181,1.132l7.187,3c1.16.486,1.3.236,1.7-.549l.34.146Zm3.194-7.041L24.87,75.9c.326-.757.444-1.021-.618-1.639l-1.875-1.1-5.326-.6a1.236,1.236,0,0,0-1.181.4l-.333-.187,2-3.417.319.188c-.41.694-.41.868-.049,1.076a2.909,2.909,0,0,0,.854.174l3.681.507-1.7-2.514A4.444,4.444,0,0,0,19.7,67.7c-.5-.292-.743.069-1.062.528l-.326-.187,1.312-2.243.319.181a.993.993,0,0,0,.1.979l2.826,4.271,2.354,1.389c1.056.618,1.215.41,1.722-.257l.319.188ZM63.126,36.809l.694,2.882-.292.069c-.771-1.972-1.653-2.132-3.2-1.757-.632.153-.826.264-.694.875l.812,3.333c1.1-.25,1.6-.771,1.34-2.59l.3-.069,1.181,4.861-.3.069c-.576-1.764-1.264-2.083-2.4-1.771l.847,3.472c.153.632.41.75,1.16.569,1.125-.271,2.208-.931,2.4-3.278l.319-.076.271,3.1-6.722,1.632-.09-.354c.632-.25.979-.375.764-1.271l-1.687-6.944c-.229-.951-.694-.861-1.257-.778l-.062-.368Zm-12.785,3.91.139.347c-.465.236-.958.465-.59,1.389l1.153,2.84,2.639-1.076-1.153-2.833c-.368-.9-.882-.694-1.389-.569L51,40.469l3.729-1.514.139.347c-.458.229-.937.472-.569,1.389l2.687,6.625c.333.826.743.694,1.389.583l.139.34L54.772,49.7l-.139-.34c.549-.319.931-.542.59-1.389l-1.285-3.132L51.3,45.913l1.285,3.153c.34.833.764.694,1.389.569l.139.34-3.694,1.5-.139-.34c.542-.333.861-.542.535-1.354l-2.694-6.625c-.361-.889-.84-.694-1.326-.59l-.139-.347Zm-5.285,2.347,1.528,2.555-.3.174c-1.389-1.924-2.486-1.389-3.222-1.014L46.994,51.5c.639,1.09.9.972,1.694.59l.181.319-3.646,2.132-.181-.319c.694-.514.931-.694.3-1.75l-3.931-6.729c-.694.472-1.7,1.153-.694,3.312l-.3.174-1.472-2.583ZM34.321,50.01l1.944,2.25-.215.181c-1.2-.993-2.083-1.486-3.59-.153-.486.417-.6.6-.187,1.083l2.243,2.59c1.125-.937.569-1.847-.076-2.847l.222-.194L37.932,56.7l-.222.194c-.9-.833-1.743-1.521-2.868-.549l2.222,2.576c.639.736,1.021.451,1.674-.056l.243.278-3.222,2.778-.243-.278c.451-.507.694-.785.1-1.472l-4.68-5.416c-.639-.736-1.028-.444-1.472-.111l-.243-.278Zm-2.715,9.027c2.34,2.042,2.778,4.778,1.208,6.6s-4.368,1.75-6.715-.292-2.7-4.861-1.2-6.6,4.278-1.84,6.708.278Z" transform="translate(-0.938 -9.313)" fill="#231f20"/><path d="M103.428,229.811a1.424,1.424,0,0,0,.507-1.132,1.056,1.056,0,0,0-1.1-1.2.91.91,0,0,0-1.007.792C101.83,229.228,103.337,229.763,103.428,229.811Z" transform="translate(-31.101 -69.508)" fill="#231f20"/><path d="M111.97,235.317a1.014,1.014,0,0,0,1.1-1.153c0-.806-.806-1.236-1.639-1.674a1.966,1.966,0,0,0-.632,1.466,1.209,1.209,0,0,0,1.174,1.361Z" transform="translate(-33.838 -71.041)" fill="#231f20"/><path d="M189.355,155.587c-.535,2.084,2.813,3.014,4.063,3.327,2.084.535,4.723.695,5.161-.979s-1.973-2.778-4.063-3.334C193.258,154.288,189.883,153.5,189.355,155.587Z" transform="translate(-57.831 -47.116)" fill="#231f20"/><path d="M159.84,62.806l1.09-3.646-3.07,2.2Z" transform="translate(-48.222 -18.077)" fill="#231f20"/><path d="M174.923,69.473c1.063-1.056,1.153-1.868.445-2.584-.486-.486-.618-.389-.993-.111L171.7,69.425C172.867,70.585,173.554,70.821,174.923,69.473Z" transform="translate(-52.451 -20.335)" fill="#231f20"/><path d="M191.38,216.2a1.167,1.167,0,0,0-1.167-1.167H188.56v3.924h.736v-1.591h.528l.743,1.591h.813l-.778-1.66a1.167,1.167,0,0,0,.778-1.1Zm-1.167.431H189.3v-.861h.917a.431.431,0,1,1,0,.861Z" transform="translate(-57.606 -65.708)" fill="#231f20"/><path d="M189.048,212.91a3.473,3.473,0,1,0,3.438,3.473,3.431,3.431,0,0,0-3.438-3.473Zm0,6.14a2.7,2.7,0,1,1,2.7-2.7,2.7,2.7,0,0,1-2.7,2.7Z" transform="translate(-56.683 -65.061)" fill="#231f20"/></g></g></svg>